<svg width="46" height="46" viewBox="0 0 46 46" fill="none" xmlns="http://www.w3.org/2000/svg">
<rect width="46" height="46" rx="10" fill="black"/>
<path d="M22.8129 34.384C21.0209 34.384 19.3035 34.1493 17.6609 33.68C16.0182 33.1893 14.6955 32.56 13.6929 31.792L15.4529 27.888C16.4129 28.5707 17.5435 29.136 18.8449 29.584C20.1675 30.0107 21.5009 30.224 22.8449 30.224C23.8689 30.224 24.6902 30.128 25.3089 29.936C25.9489 29.7227 26.4182 29.4347 26.7169 29.072C27.0155 28.7093 27.1649 28.2933 27.1649 27.824C27.1649 27.2267 26.9302 26.7573 26.4609 26.416C25.9915 26.0533 25.3729 25.7653 24.6049 25.552C23.8369 25.3173 22.9835 25.104 22.0449 24.912C21.1275 24.6987 20.1995 24.4427 19.2609 24.144C18.3435 23.8453 17.5009 23.4613 16.7329 22.992C15.9649 22.5227 15.3355 21.904 14.8449 21.136C14.3755 20.368 14.1409 19.3867 14.1409 18.192C14.1409 16.912 14.4822 15.7493 15.1649 14.704C15.8689 13.6373 16.9142 12.7947 18.3009 12.176C19.7089 11.536 21.4689 11.216 23.5809 11.216C24.9889 11.216 26.3755 11.3867 27.7409 11.728C29.1062 12.048 30.3115 12.5387 31.3569 13.2L29.7569 17.136C28.7115 16.5387 27.6662 16.1013 26.6209 15.824C25.5755 15.5253 24.5515 15.376 23.5489 15.376C22.5462 15.376 21.7249 15.4933 21.0849 15.728C20.4449 15.9627 19.9862 16.272 19.7089 16.656C19.4315 17.0187 19.2929 17.4453 19.2929 17.936C19.2929 18.512 19.5275 18.9813 19.9969 19.344C20.4662 19.6853 21.0849 19.9627 21.8529 20.176C22.6209 20.3893 23.4635 20.6027 24.3809 20.816C25.3195 21.0293 26.2475 21.2747 27.1649 21.552C28.1035 21.8293 28.9569 22.2027 29.7249 22.672C30.4929 23.1413 31.1115 23.76 31.5809 24.528C32.0715 25.296 32.3169 26.2667 32.3169 27.44C32.3169 28.6987 31.9649 29.8507 31.2609 30.896C30.5569 31.9413 29.5009 32.784 28.0929 33.424C26.7062 34.064 24.9462 34.384 22.8129 34.384Z" fill="white"/>
</svg>
