<svg width="180" height="180" viewBox="0 0 180 180" fill="none" xmlns="http://www.w3.org/2000/svg">
<path d="M151.875 0L28.125 0C12.592 0 0 12.592 0 28.125L0 151.875C0 167.408 12.592 180 28.125 180H151.875C167.408 180 180 167.408 180 151.875V28.125C180 12.592 167.408 0 151.875 0Z" fill="#F4A938"/>
<mask id="mask0_153_45" style="mask-type:alpha" maskUnits="userSpaceOnUse" x="45" y="45" width="91" height="90">
<path d="M45.3456 55.3455C45.3456 49.8226 49.8227 45.3455 55.3456 45.3455H125.345C130.867 45.3455 135.345 49.8226 135.345 55.3455V124.843C135.345 130.366 130.867 134.843 125.345 134.843H55.3456C49.8227 134.843 45.3456 130.366 45.3456 124.843V55.3455Z" fill="white"/>
</mask>
<g mask="url(#mask0_153_45)">
<path d="M135.346 90.3446C135.346 78.6834 143.977 55.1513 136.633 47.1354C128.391 38.1381 103.434 45.3446 90.3455 45.3446C78.0168 45.3446 53.4942 36.6463 45.3455 44.7488C37.1354 52.9123 45.3455 77.9232 45.3455 90.3446C45.3455 101.686 34.9169 126.882 41.7656 134.782C48.5037 142.554 72.4324 133.108 83.033 134.782V103.282H71.783V90.3446H83.033V80.2196C83.033 68.9696 89.783 62.7821 99.908 62.7821C104.97 62.7821 110.033 63.9071 110.033 63.9071V75.1571H104.408C98.783 75.1571 97.0955 78.5321 97.0955 81.9071V90.3446H109.47L107.22 103.282H96.533V134.782C107.404 133.151 129.793 140.505 136.633 133.053C143.951 125.081 135.346 101.974 135.346 90.3446Z" fill="white"/>
</g>
</svg>
