<svg width="180" height="180" viewBox="0 0 180 180" fill="none" xmlns="http://www.w3.org/2000/svg">
<path d="M180 20C180 8.9543 171.046 0 160 0L20 0C8.9543 0 0 8.95431 0 20L0 160C0 171.046 8.95431 180 20 180H160C171.046 180 180 171.046 180 160V20Z" fill="#F4A938"/>
<path d="M89.6464 51.75C102.021 51.75 103.709 51.75 108.771 51.75C113.271 51.75 115.521 52.875 117.209 53.4375C119.459 54.5625 121.146 55.125 122.834 56.8125C124.521 58.5 125.646 60.1875 126.209 62.4375C126.771 64.125 127.334 66.375 127.896 70.875C127.896 75.9375 127.896 77.0625 127.896 90C127.896 102.938 127.896 104.062 127.896 109.125C127.896 113.625 126.771 115.875 126.209 117.562C125.084 119.812 124.521 121.5 122.834 123.188C121.146 124.875 119.459 126 117.209 126.563C115.521 127.125 113.271 127.688 108.771 128.25C103.709 128.25 102.584 128.25 89.6464 128.25C76.7089 128.25 75.5839 128.25 70.5214 128.25C66.0214 128.25 63.7714 127.125 62.0839 126.563C59.8339 125.438 58.1464 124.875 56.4589 123.188C54.7714 121.5 53.6464 119.812 53.0839 117.562C52.5214 115.875 51.9589 113.625 51.3964 109.125C51.3964 104.062 51.3964 102.938 51.3964 90C51.3964 77.0625 51.3964 75.9375 51.3964 70.875C51.3964 66.375 52.5214 64.125 53.0839 62.4375C54.2089 60.1875 54.7714 58.5 56.4589 56.8125C58.1464 55.125 59.8339 54 62.0839 53.4375C63.7714 52.875 66.0214 52.3125 70.5214 51.75C75.5839 51.75 77.2714 51.75 89.6464 51.75ZM89.6464 43.3125C76.7089 43.3125 75.5839 43.3125 70.5214 43.3125C65.4589 43.3125 62.0839 44.4375 59.2714 45.5625C56.4589 46.6875 53.6464 48.375 50.8339 51.1875C48.0214 54 46.8964 56.25 45.2089 59.625C44.0839 62.4375 43.5214 65.8125 42.9589 70.875C42.9589 75.9375 42.9589 77.625 42.9589 90C42.9589 102.938 42.9589 104.062 42.9589 109.125C42.9589 114.188 44.0839 117.562 45.2089 120.375C46.3339 123.188 48.0214 126 50.8339 128.813C53.6464 131.625 55.8964 132.75 59.2714 134.438C62.0839 135.563 65.4589 136.125 70.5214 136.687C75.5839 136.687 77.2714 136.687 89.6464 136.687C102.021 136.687 103.709 136.687 108.771 136.687C113.834 136.687 117.209 135.563 120.021 134.438C122.834 133.312 125.646 131.625 128.459 128.813C131.271 126 132.396 123.75 134.084 120.375C135.209 117.562 135.771 114.188 136.334 109.125C136.334 104.062 136.334 102.375 136.334 90C136.334 77.625 136.334 75.9375 136.334 70.875C136.334 65.8125 135.209 62.4375 134.084 59.625C132.959 56.8125 131.271 54 128.459 51.1875C125.646 48.375 123.396 47.25 120.021 45.5625C117.209 44.4375 113.834 43.875 108.771 43.3125C103.709 43.3125 102.584 43.3125 89.6464 43.3125Z" fill="white"/>
<path d="M89.6464 65.8125C76.1464 65.8125 65.4589 76.5 65.4589 90C65.4589 103.5 76.1464 114.188 89.6464 114.188C103.146 114.188 113.834 103.5 113.834 90C113.834 76.5 103.146 65.8125 89.6464 65.8125ZM89.6464 105.75C81.2089 105.75 73.8964 99 73.8964 90C73.8964 81.5625 80.6464 74.25 89.6464 74.25C98.0839 74.25 105.396 81 105.396 90C105.396 98.4375 98.0839 105.75 89.6464 105.75Z" fill="white"/>
<path d="M114.396 70.875C117.503 70.875 120.021 68.3566 120.021 65.25C120.021 62.1434 117.503 59.625 114.396 59.625C111.29 59.625 108.771 62.1434 108.771 65.25C108.771 68.3566 111.29 70.875 114.396 70.875Z" fill="white"/>
</svg>
