<svg width="180" height="180" viewBox="0 0 180 180" fill="none" xmlns="http://www.w3.org/2000/svg">
<path d="M151.875 0L28.125 0C12.592 0 0 12.592 0 28.125L0 151.875C0 167.408 12.592 180 28.125 180H151.875C167.408 180 180 167.408 180 151.875V28.125C180 12.592 167.408 0 151.875 0Z" fill="#F4A938"/>
<path fill-rule="evenodd" clip-rule="evenodd" d="M130.172 54C133.121 54 135.739 55.3197 137.387 57.361L89.5391 94.8287L42.1178 58.0413C43.7034 55.6177 46.5631 54 49.8275 54H130.172ZM40.8 116.371V64.6898L74.826 91.0857L40.8701 117.427C40.8239 117.081 40.8 116.729 40.8 116.371ZM43.9119 122.738C45.4962 124.023 47.5646 124.8 49.8275 124.8H130.172C132.117 124.8 133.919 124.226 135.393 123.249L99.2358 94.9359L92.7339 100.027C90.895 101.467 88.2161 101.473 86.3701 100.041L79.7701 94.9211L43.9119 122.738ZM104.153 91.0857L138.953 118.337C139.115 117.706 139.2 117.048 139.2 116.371V63.6415L104.153 91.0857Z" fill="white"/>
</svg>
