<svg width="215" height="150" viewBox="0 0 215 150" fill="none" xmlns="http://www.w3.org/2000/svg">
<path d="M39.0839 68.3586C25.8011 68.3586 15.0088 57.5663 15.0088 44.2835C15.0088 31.0006 25.8011 20.2083 39.0839 20.2083C52.3668 20.2083 63.1591 31.0006 63.1591 44.2835C63.1591 57.5663 52.3668 68.3586 39.0839 68.3586ZM39.0839 27.7236C30.0393 27.7236 22.7207 35.0423 22.7207 44.0868C22.7207 53.1314 30.0393 60.4501 39.0839 60.4501C48.1285 60.4501 55.4472 53.1314 55.4472 44.0868C55.4472 35.0423 48.1285 27.7236 39.0839 27.7236Z" fill="#F4A938"/>
<path d="M41.5963 119.196C41.5963 117.077 41.7929 114.761 41.9895 112.642C41.0283 112.642 40.2636 112.642 39.3024 112.642C20.4267 112.642 7.73376 104.93 7.73376 99.7524C7.73376 82.4279 21.7812 68.1838 39.3024 68.1838C47.189 68.1838 54.5077 71.2642 60.1005 76.0705C62.023 74.3446 63.9455 72.5969 66.0647 71.0676C59.1392 64.5136 49.7014 60.4719 39.3024 60.4719C17.7177 60.4719 0 77.993 0 99.7306C0 111.091 17.5211 120.332 39.2805 120.332C40.0452 120.332 40.8316 120.332 41.7929 120.332C41.5963 119.961 41.5963 119.567 41.5963 119.196Z" fill="#F4A938"/>
<path d="M173.857 68.162C160.181 68.162 149.214 57.1949 149.214 43.5188C149.214 29.8427 160.181 18.8756 173.857 18.8756C187.533 18.8756 198.5 29.8427 198.5 43.5188C198.5 57.1949 187.533 68.162 173.857 68.162ZM173.857 26.5875C164.419 26.5875 156.904 34.2994 156.904 43.5406C156.904 52.9784 164.615 60.4937 173.857 60.4937C183.294 60.4937 190.81 52.7818 190.81 43.5406C190.81 34.081 183.294 26.5875 173.857 26.5875Z" fill="#F4A938"/>
<path d="M173.857 60.4719C163.261 60.4719 153.452 64.7102 146.33 71.439C148.449 72.9901 150.371 74.716 152.294 76.4419C158.061 71.2424 165.577 68.162 174.053 68.162C191.968 68.162 206.408 82.7993 206.408 100.517C206.408 105.149 192.732 113.8 174.053 113.8C172.699 113.8 171.541 113.8 170.208 113.603C170.405 115.329 170.405 117.252 170.405 118.999C170.405 119.764 170.405 120.551 170.405 121.315C171.563 121.315 172.721 121.512 174.053 121.512C195.048 121.512 214.098 111.506 214.098 100.517C214.098 78.3644 196.009 60.4719 173.857 60.4719Z" fill="#F4A938"/>
<path d="M105.891 70.0845C86.6444 70.0845 70.8491 54.4859 70.8491 35.0422C70.8491 15.5986 86.4477 0 105.891 0C125.335 0 140.934 15.5986 140.934 35.0422C140.934 54.4859 125.138 70.0845 105.891 70.0845ZM105.891 7.90853C90.8826 7.90853 78.561 20.2301 78.561 35.2389C78.561 50.2476 90.8826 62.591 105.891 62.591C120.9 62.591 133.222 50.2694 133.222 35.2607C133.222 20.252 120.922 7.90853 105.891 7.90853Z" fill="#F4A938"/>
<path d="M105.891 150C74.3228 150 47.7352 136.521 47.7352 120.551C47.7352 88.5887 73.7329 62.3944 105.891 62.3944C137.853 62.3944 164.048 88.3921 164.048 120.551C164.048 135.734 135.734 150 105.891 150ZM105.891 70.0845C78.1678 70.0845 55.4471 92.6085 55.4471 120.529C55.4471 130.535 77.4032 142.288 105.891 142.288C134.576 142.288 156.336 129.005 156.336 120.529C156.336 92.8051 133.615 70.0845 105.891 70.0845Z" fill="#F4A938"/>
</svg>
