<svg width="32" height="26" viewBox="0 0 32 26" fill="none" xmlns="http://www.w3.org/2000/svg">
<path d="M18.933 15.275H18.156C17.753 15.275 17.426 14.949 17.426 14.546C17.426 14.397 17.486 14.253 17.593 14.149C18.045 13.71 18.425 13.119 18.7 12.482C18.756 12.523 18.816 12.553 18.884 12.553C19.32 12.553 19.834 11.589 19.834 10.932C19.834 10.275 19.773 9.74201 19.336 9.74201C19.284 9.74201 19.23 9.75101 19.174 9.76501C19.143 7.98301 18.693 5.76001 15.972 5.76001C13.133 5.76001 12.802 7.97901 12.77 9.75901C12.73 9.75101 12.69 9.74201 12.653 9.74201C12.216 9.74201 12.156 10.275 12.156 10.932C12.156 11.589 12.668 12.553 13.105 12.553C13.159 12.553 13.209 12.538 13.256 12.511C13.53 13.138 13.905 13.717 14.35 14.152C14.457 14.256 14.517 14.398 14.517 14.548C14.517 14.951 14.19 15.278 13.787 15.278H13.009C11.347 15.278 10 16.625 10 18.287V19.121C10 19.645 10.425 20.071 10.95 20.071H20.992C21.516 20.071 21.941 19.645 21.941 19.121V18.287C21.942 16.623 20.595 15.275 18.933 15.275Z" fill="black"/>
<path d="M27.615 0H4.325C1.936 0 0 1.936 0 4.325V21.501C0 23.891 1.936 25.826 4.325 25.826H27.615C30.004 25.826 31.939 23.89 31.939 21.501V4.325C31.939 1.936 30.004 0 27.615 0ZM29.898 21.501C29.898 22.76 28.874 23.784 27.615 23.784H4.325C3.066 23.784 2.042 22.76 2.042 21.501V4.325C2.042 3.066 3.066 2.042 4.325 2.042H27.615C28.874 2.042 29.898 3.066 29.898 4.325V21.501Z" fill="black"/>
</svg>
