<svg width="180" height="180" viewBox="0 0 180 180" fill="none" xmlns="http://www.w3.org/2000/svg">
<path d="M151.875 0L28.125 0C12.592 0 0 12.592 0 28.125L0 151.875C0 167.408 12.592 180 28.125 180H151.875C167.408 180 180 167.408 180 151.875V28.125C180 12.592 167.408 0 151.875 0Z" fill="#F4A938"/>
<path d="M52.4 40.8H75.6L87.2 69.8L72.7 78.5C78.9115 91.0949 89.1051 101.288 101.7 107.5L110.4 93L139.4 104.6V127.8C139.4 130.877 138.178 133.827 136.002 136.002C133.827 138.178 130.876 139.4 127.8 139.4C105.176 138.025 83.8369 128.418 67.8096 112.39C51.7823 96.3632 42.1749 75.0243 40.8 52.4C40.8 49.3235 42.0221 46.373 44.1975 44.1976C46.373 42.0222 49.3235 40.8 52.4 40.8Z" fill="white"/>
</svg>
