<svg width="150" height="150" viewBox="0 0 150 150" fill="none" xmlns="http://www.w3.org/2000/svg">
<path d="M75 37.5C95.7115 37.5 112.5 54.2885 112.5 75C112.5 95.7115 95.7115 112.5 75 112.5C54.2885 112.5 37.5 95.7115 37.5 75C37.5 54.2885 54.2885 37.5 75 37.5ZM75 100.962C89.3394 100.962 100.962 89.3394 100.962 75C100.962 60.6606 89.3394 49.0385 75 49.0385C60.6606 49.0385 49.0385 60.6606 49.0385 75C49.0385 89.3394 60.6606 100.962 75 100.962ZM80.7692 5.76923C80.7692 6.825 80.7692 22.0212 80.7692 23.0769C80.7692 26.2644 78.1875 28.8462 75 28.8462C71.8125 28.8462 69.2308 26.2644 69.2308 23.0769C69.2308 22.0212 69.2308 6.825 69.2308 5.76923C69.2308 2.58173 71.8125 0 75 0C78.1875 0 80.7692 2.58173 80.7692 5.76923ZM128.034 30.1269C127.287 30.874 116.541 41.6192 115.794 42.3663C113.541 44.6192 109.889 44.6192 107.637 42.3663C105.384 40.1135 105.384 36.4615 107.637 34.2087C108.384 33.4615 119.129 22.7163 119.876 21.9692C122.129 19.7163 125.781 19.7163 128.034 21.9692C130.287 24.2221 130.287 27.874 128.034 30.1269ZM144.231 80.7692C143.175 80.7692 127.979 80.7692 126.923 80.7692C123.736 80.7692 121.154 78.1875 121.154 75C121.154 71.8125 123.736 69.2308 126.923 69.2308C127.979 69.2308 143.175 69.2308 144.231 69.2308C147.418 69.2308 150 71.8125 150 75C150 78.1875 147.418 80.7692 144.231 80.7692ZM119.873 128.034C119.126 127.287 108.381 116.541 107.634 115.794C105.381 113.541 105.381 109.889 107.634 107.637C109.887 105.384 113.538 105.384 115.791 107.637C116.538 108.384 127.284 119.129 128.031 119.876C130.284 122.129 130.284 125.781 128.031 128.034C125.778 130.287 122.126 130.287 119.873 128.034ZM69.2308 144.231C69.2308 143.175 69.2308 127.979 69.2308 126.923C69.2308 123.736 71.8125 121.154 75 121.154C78.1875 121.154 80.7692 123.736 80.7692 126.923C80.7692 127.979 80.7692 143.175 80.7692 144.231C80.7692 147.418 78.1875 150 75 150C71.8125 150 69.2308 147.418 69.2308 144.231ZM21.9663 119.873C22.7135 119.126 33.4587 108.381 34.2058 107.634C36.4587 105.381 40.1106 105.381 42.3635 107.634C44.6163 109.887 44.6163 113.538 42.3635 115.791C41.6163 116.538 30.8712 127.284 30.124 128.031C27.8712 130.284 24.2192 130.284 21.9663 128.031C19.7135 125.778 19.7135 122.126 21.9663 119.873ZM5.76923 69.2308C6.825 69.2308 22.0212 69.2308 23.0769 69.2308C26.2644 69.2308 28.8462 71.8125 28.8462 75C28.8462 78.1875 26.2644 80.7692 23.0769 80.7692C22.0212 80.7692 6.825 80.7692 5.76923 80.7692C2.58173 80.7692 0 78.1875 0 75C0 71.8125 2.58173 69.2308 5.76923 69.2308ZM30.1269 21.9663C30.874 22.7135 41.6192 33.4587 42.3663 34.2058C44.6192 36.4587 44.6192 40.1106 42.3663 42.3635C40.1135 44.6163 36.4615 44.6163 34.2087 42.3635C33.4615 41.6163 22.7163 30.8712 21.9692 30.124C19.7163 27.8712 19.7163 24.2192 21.9692 21.9663C24.2221 19.7135 27.874 19.7135 30.1269 21.9663Z" fill="#F4A938"/>
</svg>
