<svg width="180" height="180" viewBox="0 0 180 180" fill="none" xmlns="http://www.w3.org/2000/svg">
<path d="M151.875 0L28.125 0C12.592 0 0 12.592 0 28.125L0 151.875C0 167.408 12.592 180 28.125 180H151.875C167.408 180 180 167.408 180 151.875V28.125C180 12.592 167.408 0 151.875 0Z" fill="#F4A938"/>
<path d="M108.403 73.9398C114.849 78.564 122.746 81.2847 131.274 81.2847V64.8146C129.66 64.8149 128.051 64.646 126.471 64.3103V77.2746C117.943 77.2746 110.048 74.5538 103.6 69.93V103.541C103.6 120.355 90.0185 133.984 73.2655 133.984C67.0146 133.984 61.2045 132.087 56.3782 128.835C61.8867 134.487 69.5687 137.994 78.0676 137.994C94.8216 137.994 108.404 124.364 108.404 107.55V73.9398H108.403ZM114.329 57.3234C111.034 53.7117 108.871 49.0442 108.403 43.884V41.7656H103.852C104.998 48.3242 108.905 53.9274 114.329 57.3234ZM66.9745 115.932C65.134 113.51 64.1394 110.548 64.1438 107.502C64.1438 99.8117 70.3561 93.5765 78.0203 93.5765C79.4486 93.5762 80.8684 93.7957 82.2296 94.2291V77.3909C80.6389 77.1721 79.0334 77.0792 77.4286 77.1133V90.2193C76.0664 89.7859 74.6459 89.5657 73.2172 89.5671C65.553 89.5671 59.3411 95.8016 59.3411 103.493C59.3411 108.931 62.4462 113.639 66.9745 115.932Z" fill="white"/>
<path d="M103.6 69.9297C110.048 74.5535 117.943 77.2743 126.471 77.2743V64.3099C121.711 63.2923 117.497 60.7959 114.328 57.3234C108.905 53.927 104.997 48.3238 103.852 41.7656H91.8959V107.549C91.8688 115.218 85.6672 121.428 78.0194 121.428C73.5127 121.428 69.5089 119.272 66.9733 115.932C62.4453 113.639 59.3402 108.93 59.3402 103.493C59.3402 95.8026 65.5521 89.5674 73.2163 89.5674C74.6848 89.5674 76.1001 89.7969 77.4277 90.2197V77.1136C60.969 77.4549 47.7322 90.951 47.7322 107.549C47.7322 115.835 51.0284 123.347 56.3783 128.835C61.2047 132.087 67.0147 133.984 73.2657 133.984C90.019 133.984 103.601 120.354 103.601 103.541V69.9297H103.6Z" fill="white"/>
</svg>
