<svg width="180" height="180" viewBox="0 0 180 180" fill="none" xmlns="http://www.w3.org/2000/svg">
<path d="M151.875 0L28.125 0C12.592 0 0 12.592 0 28.125L0 151.875C0 167.408 12.592 180 28.125 180H151.875C167.408 180 180 167.408 180 151.875V28.125C180 12.592 167.408 0 151.875 0Z" fill="#F4A938"/>
<path d="M137.111 64.3852C135.858 59.9849 132.725 56.8418 128.34 55.5846C120.822 53.6987 88.8712 53.6987 88.8712 53.6987C88.8712 53.6987 57.5471 53.6987 49.4028 55.5846C45.0174 56.8418 41.8849 59.9849 40.632 64.3852C39.379 72.5572 39.379 88.9012 39.379 88.9012C39.379 88.9012 39.379 105.245 41.2585 113.417C42.5115 117.817 45.6438 120.961 50.0292 122.218C57.547 124.104 89.4978 124.104 89.4978 124.104C89.4978 124.104 120.822 124.104 128.966 122.218C133.352 120.961 136.484 117.817 137.737 113.417C139.617 105.245 139.617 88.9012 139.617 88.9012C139.617 88.9012 139.617 72.5572 137.111 64.3852ZM79.474 103.988V73.8144L105.786 88.9012L79.474 103.988Z" fill="white"/>
</svg>
